<?xml version="1.0" standalone="no"?>
<!DOCTYPE svg PUBLIC "-//W3C//DTD SVG 20010904//EN"
 "http://www.w3.org/TR/2001/REC-SVG-20010904/DTD/svg10.dtd">
<svg version="1.0" xmlns="http://www.w3.org/2000/svg"
 width="1910.000000pt" height="1910.000000pt" viewBox="0 0 1910.000000 1910.000000"
 preserveAspectRatio="xMidYMid meet">
<metadata>
Created by potrace 1.11, written by Peter Selinger 2001-2013
</metadata>
<g transform="translate(0.000000,1910.000000) scale(0.100000,-0.100000)"
fill="#000000" stroke="none">
<path d="M9149 19096 c-2 -2 -54 -6 -114 -10 -115 -7 -185 -12 -270 -22 -27
-3 -70 -7 -95 -10 -25 -2 -61 -6 -80 -9 -19 -3 -57 -7 -85 -10 -104 -11 -340
-58 -347 -69 -4 -6 -8 -23 -9 -38 -1 -16 -2 -31 -3 -35 -1 -5 -6 -42 -10 -83
-5 -41 -10 -84 -12 -95 -2 -11 -6 -51 -9 -90 -3 -38 -8 -86 -10 -105 -2 -19
-7 -73 -10 -120 -4 -47 -8 -101 -10 -120 -24 -238 -40 -745 -40 -1300 0 -438
4 -634 20 -938 6 -130 31 -444 40 -502 2 -14 6 -56 10 -93 3 -37 8 -76 10 -85
1 -9 6 -42 11 -72 4 -30 9 -58 10 -62 1 -5 2 -22 3 -39 l1 -30 108 5 c130 7
320 15 502 22 179 6 1367 6 1545 0 144 -5 281 -11 468 -22 l107 -6 1 29 c0 15
2 37 4 48 2 11 7 43 10 70 3 28 8 66 10 85 8 67 24 225 30 290 3 36 8 85 10
110 4 39 7 90 20 290 27 412 27 1351 0 1845 -8 149 -16 276 -20 310 -4 41 -15
176 -20 255 -4 65 -15 180 -20 215 -2 17 -7 62 -11 100 -3 39 -8 77 -9 85 -2
8 -4 29 -4 47 -1 26 -6 33 -33 42 -33 10 -300 55 -393 66 -27 3 -64 8 -81 10
-18 3 -63 7 -100 10 -38 3 -94 8 -124 11 -30 3 -75 8 -100 10 -53 6 -896 14
-901 10z"/>
<path d="M7115 18693 c-301 -109 -557 -218 -842 -362 -95 -47 -185 -93 -200
-101 -424 -233 -758 -457 -1128 -754 -55 -45 -102 -83 -105 -86 -3 -3 -34 -30
-70 -60 -193 -164 -493 -457 -686 -672 -332 -369 -719 -899 -945 -1293 -224
-393 -394 -739 -534 -1090 -37 -93 -71 -179 -76 -190 -18 -39 -139 -399 -135
-402 1 -2 41 27 87 64 285 231 720 464 1179 632 63 24 124 46 135 51 18 8 256
85 400 130 72 23 460 127 495 134 14 2 81 18 150 35 122 29 490 106 560 117
19 3 42 7 50 9 13 4 210 39 285 51 17 2 41 6 55 9 14 3 40 7 58 10 17 3 44 7
60 10 143 23 188 30 277 40 28 4 57 8 65 10 8 2 40 7 70 10 30 4 71 9 90 11
19 2 46 6 60 9 14 3 67 9 118 15 52 6 108 12 125 15 60 8 118 14 180 21 34 3
73 7 86 9 12 2 60 7 105 11 44 4 88 8 96 10 8 1 21 3 28 3 9 1 12 10 8 29 -3
15 -8 50 -11 77 -3 28 -7 61 -10 75 -6 39 -22 209 -50 535 -5 62 -13 186 -20
315 -25 480 -25 1287 0 1660 2 30 6 108 10 173 4 65 8 128 10 140 2 12 6 58
10 102 6 81 13 145 20 200 2 17 7 57 11 90 3 33 8 67 9 77 2 9 6 38 10 65 4
26 9 56 12 66 6 23 -15 21 -102 -10z"/>
<path d="M11816 18698 c9 -42 24 -133 29 -178 3 -25 8 -58 10 -75 6 -40 12
-95 20 -185 4 -41 8 -86 10 -100 3 -21 11 -139 20 -285 20 -323 26 -1191 11
-1545 -12 -301 -20 -446 -31 -570 -2 -30 -7 -86 -10 -125 -6 -78 -23 -241 -31
-295 -3 -19 -7 -60 -10 -90 -3 -30 -10 -75 -15 -99 -5 -24 -8 -45 -7 -46 4 -4
64 -12 143 -20 108 -10 159 -15 195 -20 19 -3 60 -8 90 -11 30 -3 66 -7 80 -9
14 -2 54 -7 90 -10 36 -4 72 -9 81 -10 9 -2 40 -6 70 -10 30 -3 101 -13 159
-21 58 -8 123 -17 145 -20 22 -3 51 -7 65 -9 14 -3 57 -9 95 -15 39 -5 79 -12
90 -14 11 -2 42 -7 68 -10 42 -6 404 -69 462 -81 72 -14 134 -26 160 -31 17
-2 37 -7 45 -9 8 -2 29 -7 45 -9 17 -3 82 -17 145 -31 572 -127 1011 -256
1430 -420 445 -174 857 -401 1105 -609 66 -56 75 -61 70 -39 -16 79 -172 498
-270 728 -239 559 -490 1011 -843 1520 -131 189 -386 509 -565 710 -92 104
-490 501 -587 586 -622 546 -1275 964 -1960 1254 -74 31 -148 63 -165 70 -101
43 -411 155 -431 155 -8 0 -11 -8 -8 -22z"/>
<path d="M9029 14996 c-2 -2 -96 -7 -209 -10 -279 -9 -454 -17 -650 -30 -41
-3 -113 -8 -160 -11 -131 -8 -315 -21 -415 -30 -27 -3 -78 -7 -112 -10 -142
-12 -190 -16 -223 -20 -19 -2 -64 -7 -100 -10 -36 -3 -81 -8 -100 -10 -19 -2
-63 -7 -98 -10 -35 -4 -71 -8 -80 -10 -9 -1 -46 -6 -82 -10 -36 -3 -76 -8 -90
-10 -14 -2 -50 -6 -80 -10 -30 -3 -71 -8 -90 -11 -19 -2 -48 -6 -65 -8 -108
-14 -139 -19 -220 -31 -49 -8 -110 -17 -135 -20 -95 -13 -590 -97 -680 -115
-52 -10 -111 -22 -130 -25 -55 -10 -439 -94 -505 -111 -33 -9 -68 -18 -79 -20
-41 -8 -224 -57 -373 -99 -349 -100 -676 -216 -911 -321 -29 -13 -55 -24 -58
-24 -14 0 -359 -179 -447 -232 -267 -161 -490 -345 -643 -533 -61 -74 -203
-290 -230 -349 -30 -67 -97 -396 -139 -686 -10 -69 -17 -118 -22 -145 -7 -46
-11 -77 -18 -146 -3 -35 -8 -71 -10 -79 -2 -8 -7 -44 -11 -80 -4 -36 -8 -74
-10 -85 -1 -11 -3 -30 -3 -42 l-1 -23 -205 0 -205 0 2 -962 3 -963 173 -1 c96
-1 178 -6 182 -10 4 -5 11 -70 15 -144 3 -74 8 -150 10 -170 2 -19 7 -69 11
-110 3 -41 7 -86 9 -100 1 -14 5 -56 9 -95 4 -38 9 -77 11 -85 2 -8 6 -45 10
-82 3 -37 8 -77 10 -90 3 -13 11 -68 19 -123 15 -98 67 -385 90 -495 109 -519
271 -1014 494 -1510 52 -115 168 -348 214 -429 26 -46 48 -85 48 -87 0 -8 153
-255 236 -380 108 -164 208 -300 347 -472 94 -117 122 -151 192 -227 17 -18
52 -57 79 -86 26 -30 71 -78 99 -107 l52 -52 1 -388 c1 -448 -13 -380 133
-672 403 -806 959 -1414 1726 -1887 353 -218 799 -416 1255 -556 147 -46 394
-112 453 -122 17 -3 48 -10 67 -15 44 -12 217 -46 301 -60 35 -5 73 -12 84
-14 11 -2 42 -7 68 -10 27 -4 56 -9 65 -10 15 -3 95 -14 162 -22 14 -1 52 -6
85 -10 33 -4 71 -8 85 -9 40 -3 202 -16 240 -20 263 -24 1791 -24 2090 0 25 2
83 6 130 10 47 3 96 8 110 10 14 2 59 7 100 10 41 4 77 8 80 10 3 1 36 6 75
10 38 4 72 8 75 10 3 1 32 6 65 10 33 4 69 9 80 11 40 6 341 63 365 69 14 3
39 9 55 12 254 45 835 230 1110 353 28 12 82 36 120 53 443 197 920 508 1274
832 192 175 484 499 581 645 8 12 29 41 46 64 130 174 325 513 447 780 l60
131 0 387 0 387 61 64 c638 672 1074 1400 1381 2307 34 102 63 188 63 193 1 4
12 44 26 90 21 70 80 291 91 337 53 240 80 371 91 435 2 11 12 67 23 125 10
58 22 125 25 150 4 25 11 79 17 120 6 41 12 86 14 100 2 14 7 48 10 75 3 28 8
64 10 80 2 17 7 62 10 100 4 39 8 81 10 95 2 14 7 61 10 105 4 44 9 96 10 115
2 19 6 76 10 125 9 143 16 230 21 234 2 2 100 4 218 4 l213 0 0 963 0 964
-233 0 c-128 0 -235 3 -237 8 -3 4 -8 43 -12 87 -4 44 -9 87 -10 95 -2 8 -6
44 -9 80 -4 36 -9 76 -11 90 -2 14 -7 43 -9 65 -5 39 -33 235 -41 285 -7 47
-55 325 -60 350 -3 14 -8 39 -10 55 -23 130 -75 253 -170 401 -234 362 -674
683 -1298 946 -148 62 -469 179 -597 218 -52 16 -133 40 -180 55 -81 25 -288
80 -415 112 -33 8 -67 16 -75 18 -203 54 -745 163 -1045 211 -16 2 -56 9 -87
14 -32 6 -84 14 -115 20 -32 5 -80 12 -108 15 -27 4 -57 8 -65 10 -8 2 -71 11
-140 20 -153 20 -187 24 -225 30 -16 2 -52 7 -80 10 -27 3 -63 8 -80 10 -16 2
-57 7 -90 10 -33 3 -71 8 -85 10 -14 3 -52 7 -85 10 -33 3 -78 8 -100 10 -214
24 -472 46 -720 61 -60 3 -126 7 -145 9 -35 2 -270 16 -345 20 -22 1 -101 6
-175 10 -74 4 -166 9 -205 11 -92 6 -1361 14 -1366 10z m1116 -1040 c50 -3
146 -8 215 -10 152 -6 320 -15 420 -21 41 -3 120 -7 175 -10 108 -6 178 -11
295 -20 41 -3 104 -7 140 -10 69 -5 192 -15 250 -21 19 -1 69 -6 110 -9 41 -3
91 -8 110 -10 19 -2 67 -7 105 -10 39 -4 84 -8 101 -10 17 -2 62 -7 100 -10
38 -3 80 -8 94 -10 14 -2 57 -7 95 -11 39 -3 77 -8 85 -9 9 -2 43 -6 75 -10
33 -4 71 -8 85 -10 14 -2 52 -7 85 -11 33 -3 62 -8 64 -10 2 -2 -91 -4 -207
-4 -162 0 -212 -3 -213 -12 -1 -7 -3 -22 -4 -33 -1 -11 -6 -49 -9 -85 -4 -36
-9 -76 -11 -90 -4 -25 -21 -177 -31 -275 -5 -50 -9 -83 -18 -160 -7 -55 -15
-129 -21 -195 -3 -30 -7 -66 -10 -80 -2 -14 -6 -52 -10 -85 -6 -59 -21 -197
-30 -265 -2 -19 -7 -60 -10 -90 -3 -30 -8 -71 -10 -90 -3 -19 -7 -57 -10 -85
-2 -27 -7 -70 -10 -95 -3 -25 -7 -65 -10 -90 -3 -25 -7 -63 -10 -85 -5 -42
-10 -93 -20 -185 -3 -30 -8 -66 -10 -80 -2 -14 -6 -54 -10 -90 -3 -36 -8 -81
-10 -100 -5 -39 -12 -99 -20 -175 -7 -57 -13 -114 -20 -165 -2 -19 -7 -64 -10
-100 -4 -36 -8 -76 -10 -90 -4 -24 -8 -62 -21 -190 -3 -30 -7 -66 -9 -80 -2
-14 -7 -52 -10 -85 -4 -33 -8 -71 -10 -85 -2 -14 -7 -56 -11 -95 -3 -38 -8
-77 -9 -85 -3 -14 -11 -84 -21 -181 -2 -22 -6 -56 -8 -76 -2 -21 -7 -67 -11
-103 -3 -36 -7 -72 -10 -80 -2 -8 -6 -46 -10 -85 -3 -38 -8 -81 -10 -95 -2
-14 -6 -52 -10 -85 -3 -33 -8 -76 -10 -95 -3 -19 -7 -55 -10 -80 -2 -25 -7
-63 -9 -85 -3 -22 -8 -65 -11 -95 -3 -30 -7 -71 -10 -90 -2 -19 -7 -60 -10
-90 -3 -30 -8 -66 -10 -80 -2 -14 -7 -57 -10 -96 -3 -39 -7 -80 -9 -90 -4 -22
-17 -125 -21 -169 -5 -60 -17 -171 -20 -195 -2 -14 -9 -70 -15 -125 -6 -55
-13 -116 -15 -135 -3 -19 -7 -62 -10 -95 -4 -33 -8 -71 -10 -85 -2 -14 -6 -54
-10 -90 -4 -36 -8 -76 -10 -90 -5 -29 -12 -91 -20 -175 -3 -33 -8 -71 -10 -85
-2 -14 -7 -54 -10 -90 -3 -36 -8 -76 -10 -90 -2 -14 -6 -54 -10 -90 -3 -36 -8
-76 -10 -90 -2 -14 -7 -50 -10 -80 -3 -30 -8 -71 -10 -90 -3 -19 -12 -102 -20
-185 -9 -82 -18 -161 -20 -175 -3 -14 -7 -55 -10 -91 -3 -36 -7 -74 -9 -85 -2
-10 -7 -48 -10 -84 -4 -36 -9 -81 -11 -100 -3 -19 -7 -55 -10 -80 -4 -41 -7
-68 -20 -180 -2 -19 -7 -60 -10 -90 -3 -30 -8 -71 -10 -90 -6 -54 -15 -131
-20 -175 -2 -22 -6 -61 -9 -87 -4 -27 -8 -67 -11 -90 -8 -77 -17 -152 -25
-213 -4 -33 -6 -63 -3 -67 2 -5 258 -8 569 -8 l564 0 1 33 c2 37 4 71 13 187
4 47 9 112 12 145 2 33 6 85 9 115 3 30 7 93 10 140 3 47 8 112 11 145 7 83
13 165 19 270 3 50 8 104 10 120 2 17 7 80 11 140 3 61 8 119 9 130 1 11 3 37
4 58 l1 37 315 0 315 0 1 -42 c1 -24 3 -61 4 -83 2 -22 6 -121 9 -220 4 -99 9
-234 11 -300 3 -66 7 -176 10 -245 6 -189 21 -558 24 -607 l1 -23 373 0 372 0
-65 -42 c-36 -23 -87 -56 -115 -74 -130 -84 -451 -254 -630 -334 -27 -12 -72
-32 -100 -45 -165 -74 -703 -267 -806 -289 -13 -3 -73 -19 -134 -36 -241 -67
-574 -139 -852 -185 -18 -3 -46 -7 -63 -10 -62 -10 -86 -14 -130 -20 -25 -3
-56 -8 -70 -10 -14 -2 -50 -7 -80 -10 -30 -4 -67 -8 -83 -11 -15 -2 -55 -7
-89 -9 -34 -3 -69 -7 -78 -9 -8 -3 -53 -8 -100 -11 -47 -4 -101 -8 -120 -10
-19 -2 -82 -6 -140 -10 -58 -3 -125 -8 -150 -10 -437 -36 -1366 -21 -1870 30
-25 3 -70 7 -100 10 -30 3 -71 7 -90 10 -19 2 -60 7 -90 10 -30 4 -66 8 -80
10 -14 2 -47 6 -75 10 -49 6 -95 13 -265 39 -19 3 -45 8 -56 10 -12 2 -37 7
-55 10 -195 32 -623 127 -769 171 -25 8 -85 26 -135 40 -164 48 -438 140 -522
176 -13 5 -33 13 -45 18 -13 5 -53 21 -90 36 l-67 27 18 37 c34 65 88 233 114
351 25 112 31 151 43 255 3 28 9 61 12 75 4 14 8 1873 9 4133 l3 4107 -161 0
c-90 0 -160 2 -158 4 4 3 49 10 134 20 28 4 89 12 145 21 14 2 63 9 110 15 47
6 96 13 110 15 14 2 50 6 80 10 30 3 107 12 170 20 63 7 144 17 180 21 36 3
73 8 83 10 9 1 50 6 90 9 131 11 228 20 317 30 19 2 73 7 120 10 47 3 101 8
120 10 19 2 73 7 120 10 47 3 114 7 150 10 161 12 191 14 290 20 58 3 134 8
170 10 68 5 222 13 375 20 50 2 178 7 285 10 107 4 197 8 199 10 5 6 968 -3
1076 -9z m3500 -350 c17 -3 42 -8 58 -10 15 -3 35 -7 45 -10 9 -3 34 -7 54
-10 21 -3 57 -10 80 -15 42 -10 62 -14 123 -26 354 -72 988 -253 1170 -335 11
-5 74 -32 140 -60 219 -93 475 -240 604 -346 120 -99 233 -236 290 -350 36
-74 43 -99 81 -294 11 -58 23 -116 25 -130 3 -14 10 -56 16 -95 6 -38 15 -97
20 -130 5 -33 11 -80 14 -105 3 -25 8 -58 10 -75 6 -38 16 -121 20 -160 1 -16
5 -55 9 -85 9 -83 15 -147 21 -246 3 -49 8 -111 10 -139 30 -352 19 -1108 -20
-1435 -2 -19 -7 -64 -10 -100 -3 -36 -7 -74 -9 -85 -2 -11 -7 -47 -10 -80 -4
-33 -9 -71 -11 -85 -2 -14 -6 -43 -9 -65 -4 -22 -8 -51 -11 -65 -2 -14 -6 -41
-9 -60 -7 -46 -55 -301 -61 -320 -2 -8 -7 -28 -10 -45 -9 -52 -12 -67 -45
-195 -18 -69 -33 -129 -34 -135 -2 -5 -8 -30 -15 -55 -7 -25 -14 -52 -16 -60
-6 -28 -93 -294 -128 -390 -227 -625 -525 -1148 -928 -1630 -125 -150 -413
-441 -562 -569 -60 -51 -110 -91 -112 -89 -2 2 -6 26 -10 53 -3 28 -8 69 -11
93 -3 23 -7 62 -9 86 -2 24 -6 68 -9 98 -4 29 -9 76 -12 103 -3 28 -7 66 -9
85 -2 19 -7 60 -9 90 -12 120 -17 176 -21 200 -2 14 -7 54 -10 90 -3 36 -8 87
-11 113 -4 47 -2 52 59 135 342 470 643 1064 832 1647 39 120 101 331 110 372
2 10 15 70 30 133 38 163 78 381 91 488 3 26 7 58 9 72 2 14 7 50 10 80 3 30
8 73 10 95 25 229 26 882 1 1011 -2 11 -7 48 -10 84 -4 36 -8 76 -11 90 -2 14
-6 43 -9 66 -11 93 -60 351 -92 484 -69 281 -180 616 -274 825 -10 22 -28 65
-41 95 -13 30 -34 75 -47 100 -18 36 -21 39 -16 15 15 -70 23 -104 38 -180 9
-44 18 -91 21 -105 11 -55 64 -378 71 -430 3 -30 8 -63 9 -72 2 -9 7 -48 10
-85 4 -37 8 -78 10 -89 2 -12 6 -61 10 -110 4 -49 9 -100 11 -114 8 -63 18
-393 18 -570 -1 -228 -12 -480 -29 -645 -2 -27 -7 -77 -11 -110 -3 -33 -7 -71
-9 -85 -2 -14 -11 -79 -20 -145 -86 -645 -283 -1321 -575 -1975 -44 -98 -236
-481 -253 -505 -10 -12 -14 -14 -14 -4 -1 37 -16 195 -19 200 -2 3 -6 37 -9
75 -3 38 -8 85 -10 104 -2 19 -7 63 -10 98 -4 35 -8 71 -10 80 -1 9 -6 55 -10
102 -4 47 -8 92 -10 100 -2 8 -6 50 -10 93 -3 43 -8 87 -10 98 -2 11 -7 50
-10 87 -3 37 -7 83 -10 102 -2 19 -6 62 -10 95 -8 82 -15 153 -20 195 -3 19
-7 62 -10 95 -3 33 -8 76 -10 95 -2 19 -7 64 -10 100 -4 36 -8 76 -10 90 -2
14 -7 59 -10 100 -4 41 -9 82 -10 90 -2 8 -6 50 -10 93 -3 43 -8 86 -9 95 -2
9 -7 53 -11 97 -4 44 -9 88 -11 98 -2 10 -6 49 -9 85 -7 91 -15 172 -20 202
-2 14 -6 54 -10 90 -3 36 -8 81 -10 100 -3 19 -7 64 -10 100 -3 36 -8 81 -10
100 -8 66 -15 125 -21 190 -3 36 -7 72 -9 80 -2 9 -6 58 -10 110 -4 52 -8 97
-10 100 -2 3 -6 35 -9 70 -7 82 -15 154 -21 205 -2 22 -9 90 -15 150 -6 61
-13 124 -15 140 -2 17 -7 61 -10 99 -4 38 -8 79 -10 90 -2 12 -6 53 -9 91 -4
39 -8 81 -10 95 -3 14 -7 57 -10 96 -4 39 -8 80 -10 90 -2 11 -7 55 -11 99 -3
44 -8 94 -10 110 -2 17 -7 57 -10 90 -3 33 -8 78 -11 101 -3 23 -7 61 -9 85
-2 24 -8 85 -14 134 -5 50 -13 122 -16 160 -4 39 -8 81 -10 95 -2 14 -6 54
-10 90 -3 36 -8 81 -10 100 -3 19 -7 60 -10 90 -9 86 -14 141 -20 190 -3 25
-7 68 -10 95 -5 58 -14 147 -20 190 -2 17 -7 64 -10 105 -4 41 -8 85 -10 98
-3 18 0 22 13 18 9 -2 31 -7 47 -10z m-8648 -4048 c-2 -3744 -3 -3976 -20
-4023 -26 -76 -56 -129 -93 -169 -19 -20 -36 -36 -38 -36 -4 0 -192 141 -240
180 -272 221 -511 460 -771 774 -22 27 -44 56 -49 65 -5 9 -26 36 -46 61 -59
72 -230 332 -325 495 -73 125 -216 405 -278 545 -108 245 -274 733 -323 952
-2 10 -6 26 -9 36 -7 27 -26 105 -30 123 -2 9 -12 59 -24 110 -11 52 -22 108
-25 124 -3 17 -8 41 -11 55 -7 37 -15 81 -20 120 -3 19 -8 45 -10 57 -14 63
-58 414 -70 558 -4 39 -8 88 -10 110 -14 159 -20 352 -20 690 0 350 4 479 20
695 3 36 7 94 10 130 3 36 7 83 10 105 3 22 7 63 10 90 11 120 46 385 65 495
5 30 12 71 15 90 20 123 68 352 82 390 132 352 561 654 1283 902 252 86 699
209 855 235 17 3 32 7 34 9 32 31 31 67 28 -3968z m7974 2740 c1 -24 3 -63 4
-88 2 -46 14 -309 20 -460 2 -47 6 -141 9 -210 8 -166 15 -328 21 -480 6 -152
15 -355 20 -470 2 -47 6 -148 10 -225 7 -190 15 -360 20 -480 3 -55 7 -161 10
-235 3 -74 8 -169 10 -210 2 -41 7 -131 10 -200 3 -69 8 -159 10 -200 3 -41 7
-130 10 -198 3 -68 8 -158 10 -200 2 -42 7 -135 10 -207 4 -71 8 -155 10 -185
2 -30 7 -125 10 -210 4 -85 8 -159 8 -165 1 -6 -87 -11 -244 -13 l-246 -2 2
32 c1 18 5 98 9 178 4 80 9 168 11 195 3 28 7 106 11 175 3 69 7 150 9 180 4
61 13 242 20 395 3 55 7 132 10 170 3 39 7 115 10 170 3 55 7 145 10 200 3 55
8 138 10 185 3 47 7 128 10 180 9 149 13 244 20 395 3 77 7 196 10 265 3 69 7
193 10 275 4 140 9 292 20 610 2 72 7 231 10 355 4 124 8 272 10 330 2 58 4
124 5 148 l0 42 45 0 45 0 1 -42z"/>
<path d="M10135 13724 c-44 -7 -100 -17 -125 -23 -25 -7 -56 -14 -69 -17 -43
-9 -183 -66 -250 -101 -170 -91 -369 -265 -481 -423 -163 -229 -286 -589 -326
-955 -3 -33 -8 -69 -10 -80 -23 -125 -23 -771 1 -925 2 -14 7 -54 10 -90 6
-56 14 -107 41 -262 2 -16 11 -58 20 -95 9 -38 17 -75 19 -83 5 -27 76 -294
89 -340 8 -25 24 -79 36 -120 55 -187 165 -517 230 -690 17 -47 33 -92 35
-100 2 -8 49 -132 105 -275 297 -759 473 -1325 519 -1670 22 -159 29 -387 16
-491 -25 -199 -85 -335 -194 -444 -123 -122 -241 -169 -436 -174 -135 -4 -232
12 -388 64 -66 22 -120 40 -122 40 -1 0 -3 -261 -3 -579 l0 -579 96 -27 c278
-79 410 -100 637 -100 211 0 267 8 445 62 237 72 439 198 617 386 144 152 245
312 326 517 52 133 106 348 122 495 4 33 9 62 10 65 7 12 18 256 17 385 -2
319 -34 608 -98 885 -14 58 -27 116 -30 129 -10 47 -66 258 -105 396 -108 379
-223 717 -442 1305 -168 450 -331 946 -378 1150 -4 19 -15 67 -24 105 -9 39
-18 81 -21 95 -2 14 -7 36 -9 50 -3 14 -7 43 -11 65 -3 22 -7 49 -9 60 -17
109 -25 393 -13 493 14 123 18 145 39 226 56 209 197 393 367 477 36 19 71 35
77 36 202 49 355 35 559 -49 38 -15 72 -28 75 -28 3 0 6 252 6 560 l0 560 -45
15 c-49 15 -192 53 -231 60 -13 2 -42 9 -64 15 -137 36 -471 49 -630 24z"/>
<path d="M6679 13663 c-1 -23 -1 -8394 0 -8410 1 -19 1941 -19 1942 0 1 15 1
1079 0 1090 -1 4 -181 7 -401 7 l-400 0 0 1225 0 1225 400 0 c313 0 400 3 401
13 1 17 1 1048 0 1070 -1 16 -27 17 -401 17 l-400 0 0 1330 0 1330 400 0 c374
0 400 1 401 18 1 24 1 1063 0 1085 -1 16 -54 17 -971 17 -917 0 -970 -1 -971
-17z"/>
<path d="M3668 3418 c-6 -66 -1 -434 5 -468 3 -14 8 -50 11 -80 15 -136 59
-331 108 -480 248 -759 848 -1355 1764 -1755 71 -31 143 -63 159 -70 96 -42
439 -159 600 -204 61 -18 133 -38 160 -46 220 -64 761 -172 1007 -201 29 -4
55 -8 58 -9 3 -2 33 -6 65 -10 33 -3 69 -8 80 -10 11 -2 49 -7 85 -10 36 -4
76 -8 90 -11 14 -2 59 -6 100 -10 41 -3 86 -7 100 -9 13 -3 67 -7 120 -11 52
-3 111 -7 130 -10 185 -20 1946 -29 2235 -11 228 14 379 25 435 32 19 2 66 7
104 10 38 3 80 7 95 9 14 3 71 10 126 16 55 6 111 13 125 15 14 2 45 7 70 10
41 5 125 18 190 29 14 2 48 8 75 12 28 4 52 8 55 9 11 3 96 18 115 21 23 2
237 46 335 67 371 82 833 228 1160 367 96 41 356 169 440 216 36 20 74 42 85
48 94 53 307 200 420 291 125 100 295 260 380 360 28 32 55 63 60 69 6 6 37
46 69 89 174 234 321 531 394 799 29 105 69 302 77 378 4 36 9 74 12 85 7 35
11 388 4 460 l-6 70 -22 -36 c-13 -20 -23 -39 -23 -41 0 -8 -158 -266 -213
-348 -281 -418 -639 -806 -997 -1080 -25 -19 -49 -38 -55 -43 -235 -181 -652
-425 -935 -546 -452 -193 -796 -297 -1345 -405 -16 -3 -42 -8 -57 -11 -15 -2
-55 -9 -90 -15 -35 -7 -76 -14 -93 -16 -16 -2 -64 -9 -105 -15 -41 -6 -90 -12
-110 -14 -19 -2 -51 -6 -70 -9 -19 -2 -62 -8 -95 -11 -33 -3 -78 -8 -100 -10
-121 -13 -197 -19 -385 -30 -63 -3 -135 -8 -160 -10 -271 -23 -1602 -23 -1975
0 -33 2 -109 7 -170 10 -200 12 -266 17 -390 30 -22 2 -71 7 -110 10 -38 4
-77 8 -85 10 -8 2 -40 7 -70 10 -30 3 -66 8 -80 10 -14 3 -45 7 -70 10 -25 3
-56 8 -70 10 -133 22 -226 38 -285 50 -38 8 -81 16 -95 19 -42 7 -293 65 -330
76 -19 5 -69 19 -110 31 -41 12 -79 22 -85 23 -32 7 -210 65 -335 111 -282
103 -599 250 -802 372 -49 29 -91 53 -93 53 -17 0 -374 251 -475 334 -25 21
-54 44 -65 53 -100 80 -350 321 -465 449 -236 262 -478 605 -652 925 -24 45
-26 45 -30 -13z"/>
</g>
</svg>
