<?xml version="1.0" encoding="UTF-8" standalone="no"?><!DOCTYPE svg PUBLIC "-//W3C//DTD SVG 1.1//EN" "http://www.w3.org/Graphics/SVG/1.1/DTD/svg11.dtd"><svg width="100%" height="100%" viewBox="0 0 1280 400" version="1.1" xmlns="http://www.w3.org/2000/svg" xmlns:xlink="http://www.w3.org/1999/xlink" xml:space="preserve" style="fill-rule:evenodd;clip-rule:evenodd;stroke-linejoin:round;stroke-miterlimit:1.41421;"><path d="M289.198,37.458l-0.783,6.05c-5.915,41.599 -12.656,76.63 -20.224,105.092c-7.568,28.463 -17.527,56.061 -29.879,82.795c-40.796,88.73 -85.42,133.095 -133.87,133.095c-13.918,0 -27.531,-3.457 -40.84,-10.371c-13.309,-6.914 -24.312,-16.19 -33.011,-27.829c-13.047,-17.515 -19.571,-39.525 -19.571,-66.029c0,-26.158 7.72,-47.994 23.159,-65.51c15.44,-17.515 34.686,-26.273 57.737,-26.273c36.621,0 76.416,19.763 119.387,59.288l-14.483,12.791c-17.397,-16.709 -37.143,-30.566 -59.237,-41.571c-22.094,-11.005 -41.274,-16.507 -57.541,-16.507c-17.919,0 -32.706,6.395 -44.362,19.186c-11.656,12.791 -17.484,29.039 -17.484,48.744c0,12.791 2.37,25.495 7.111,38.113c4.741,12.618 11.286,23.479 19.637,32.583c7.133,7.835 16.745,14.231 28.835,19.186c12.091,4.955 24.139,7.433 36.143,7.433c39.752,0 73.894,-25.755 102.425,-77.264c10.873,-19.821 20.941,-43.53 30.205,-71.128c9.264,-27.599 15.679,-53.094 19.246,-76.486l5.871,-38.892l3.523,-23.507c0.261,-1.498 0.565,-3.745 0.913,-6.741c-4.349,0.806 -8.307,1.21 -11.873,1.21l-12.134,-0.346c-4.002,0 -7.829,0.691 -11.482,2.074c-5.742,2.19 -10.352,6.28 -13.831,12.273c-3.48,5.992 -5.219,12.79 -5.219,20.396c0,7.26 1.413,14.058 4.24,20.396c2.827,6.338 7.894,14.116 15.201,23.335c7.133,8.988 10.699,17.227 10.699,24.717c0,10.026 -2.718,19.849 -8.155,29.471c-5.436,9.622 -10.938,14.433 -16.505,14.433c-4.436,0 -8.046,-2.103 -10.83,-6.309c-2.783,-4.206 -4.175,-9.708 -4.175,-16.507c0,-0.807 0.087,-2.132 0.261,-3.975c5.654,10.601 11.264,15.902 16.831,15.902c8.177,0 12.265,-5.647 12.265,-16.94c0,-6.798 -4.262,-15.383 -12.786,-25.754c-10.526,-12.791 -15.788,-27.483 -15.788,-44.077c0,-18.207 5.023,-33.936 15.07,-47.188c10.047,-13.252 21.942,-19.878 35.686,-19.878l12.004,0.346l11.09,0.346c2.697,0 4.871,-0.058 6.524,-0.173Z" style="fill:#fff;fill-rule:nonzero;stroke:#fff;stroke-width:3.42px;"/><path d="M362.526,146.353c-4.61,-0.576 -8.437,-0.864 -11.482,-0.864c-22.877,0 -40.404,11.639 -52.582,34.916c-4.784,9.218 -8.829,19.791 -12.135,31.718c-3.305,11.926 -4.958,21.923 -4.958,29.989c0,5.647 1.24,10.285 3.719,13.915c2.479,3.629 5.632,5.444 9.46,5.444c9.046,0 19.049,-9.622 30.009,-28.866c10.961,-19.244 16.441,-36.874 16.441,-52.892c0,-3.572 -0.718,-6.597 -2.153,-9.074c-1.436,-2.478 -3.153,-3.717 -5.154,-3.717c-6.959,0 -13.613,9.219 -19.963,27.656c-0.435,-2.304 -0.653,-4.321 -0.653,-6.049c0,-7.145 3.349,-14.635 10.047,-22.471c6.698,-7.836 13.048,-11.754 19.05,-11.754c4.001,0 7.394,2.161 10.177,6.482c2.784,4.322 4.175,9.593 4.175,15.816c0,20.857 -10.046,42.982 -30.14,66.374c-17.223,20.281 -31.532,30.422 -42.927,30.422c-4.958,0 -9.068,-2.362 -12.33,-7.087c-3.262,-4.724 -4.893,-10.659 -4.893,-17.803c0,-15.787 4.153,-32.295 12.461,-49.522c8.307,-17.227 19.245,-32.064 32.815,-44.509c7.48,-6.799 15.635,-12.387 24.464,-16.766c8.829,-4.379 16.332,-6.568 22.508,-6.568c3.827,0 5.741,2.247 5.741,6.741c0,1.728 -0.566,4.551 -1.697,8.469Z" style="fill:#fff;fill-rule:nonzero;stroke:#fff;stroke-width:3.42px;"/><path d="M445.641,130.97l-4.698,17.458c-3.305,-0.922 -6.219,-1.383 -8.742,-1.383c-10.09,0 -20.876,10.255 -32.358,30.767c-5.393,9.795 -10.025,20.454 -13.896,31.977c-3.871,11.524 -8.677,29.097 -14.418,52.719l-1.435,5.877c-5.654,1.614 -11.047,3.573 -16.179,5.877l1.435,-5.185l11.482,-40.447c10.873,-38.949 16.31,-61.88 16.31,-68.794c0,-3.573 -1.174,-5.359 -3.523,-5.359c-1.305,0 -4.219,1.556 -8.742,4.667l-1.696,-5.358c12.178,-7.836 23.094,-16.536 32.75,-26.1c0.348,2.074 0.522,3.975 0.522,5.704c0,8.873 -3.001,23.68 -9.003,44.422l3.131,-4.84c20.268,-29.5 34.62,-44.249 43.058,-44.249c1.826,0 3.827,0.749 6.002,2.247Z" style="fill:#fff;fill-rule:nonzero;stroke:#fff;stroke-width:3.42px;"/><path d="M504.747,211.691c-11.047,48.513 -22.442,83.947 -34.185,106.302c-7.916,15.096 -18.158,27.887 -30.728,38.373c-12.569,10.486 -23.986,15.729 -34.25,15.729c-4.61,0 -8.394,-1.469 -11.352,-4.407c-2.957,-2.939 -4.436,-6.713 -4.436,-11.322c0,-2.766 0.479,-5.646 1.435,-8.642c7.481,8.296 15.962,12.445 25.444,12.445c29.14,0 52.756,-47.015 70.849,-141.046c-11.482,16.939 -22.507,30.508 -33.076,40.706c-10.569,10.198 -18.898,15.298 -24.987,15.298c-7.306,0 -10.96,-6.165 -10.96,-18.495c0,-14.289 4.654,-30.422 13.961,-48.398c9.308,-17.977 21.225,-33.821 35.751,-47.534c21.225,-20.051 43.884,-30.076 67.979,-30.076c5.48,0 8.22,2.132 8.22,6.395c0,1.844 -0.739,5.128 -2.218,9.853l-0.522,1.901c-4.697,-1.037 -10.003,-1.555 -15.918,-1.555c-16.875,0 -31.097,3.168 -42.666,9.506c-11.569,6.338 -21.834,16.594 -30.793,30.768c-5.567,8.873 -10.177,18.581 -13.831,29.125c-3.653,10.544 -5.48,19.503 -5.48,26.878c0,11.178 2.697,16.766 8.09,16.766c4.349,0 10.112,-4.148 17.288,-12.445c7.176,-8.297 14.027,-18.668 20.55,-31.113c10.178,-19.589 16.441,-38.257 18.789,-56.003c3.567,4.379 5.35,9.564 5.35,15.556c0,9.91 -4.306,22.701 -12.917,38.373l1.565,-0.346l5.48,-1.037l5.741,-1.21l1.827,-0.345Z" style="fill:#fff;fill-rule:nonzero;stroke:#fff;stroke-width:3.42px;"/><path d="M595.82,197.344c1.218,3.227 1.827,6.107 1.827,8.643c0,11.062 -5.784,23.795 -17.353,38.199c-16.876,21.088 -31.228,31.632 -43.058,31.632c-10.177,0 -15.266,-7.663 -15.266,-22.989c0,-17.285 3.98,-35.434 11.939,-54.448c7.959,-19.013 18.158,-34.685 30.597,-47.015c15.135,-14.98 28.618,-22.471 40.448,-22.471c6.872,0 10.308,3.342 10.308,10.026c0,4.379 -1.653,9.651 -4.959,15.816c-3.305,6.165 -7.437,11.725 -12.395,16.68c-4.61,4.494 -10.46,8.642 -17.549,12.445c-7.09,3.802 -12.548,5.704 -16.375,5.704c-4.088,0 -6.915,-2.996 -8.481,-8.988c3.653,0.691 6.567,1.037 8.742,1.037c8.698,0 16.723,-3.313 24.073,-9.939c7.35,-6.626 11.025,-13.799 11.025,-21.52c0,-5.531 -2.696,-8.297 -8.089,-8.297c-9.656,0 -19.528,7.836 -29.619,23.508c-7.133,11.062 -13.004,23.968 -17.614,38.718c-4.61,14.75 -6.916,27.887 -6.916,39.41c0,11.869 3.741,17.804 11.222,17.804c8.176,0 16.679,-5.964 25.508,-17.89c8.829,-11.927 16.157,-27.282 21.985,-46.065Z" style="fill:#fff;fill-rule:nonzero;stroke:#fff;stroke-width:3.42px;"/><path d="M977.467,69.954l1.697,5.877c-9.569,5.876 -20.442,11.926 -32.62,18.149l-3.392,1.728c0.522,-4.033 1.044,-8.93 1.566,-14.692c0.434,-4.609 0.826,-8.7 1.174,-12.272c0.522,-4.955 0.783,-8.989 0.783,-12.1c0,-7.029 -2.523,-10.544 -7.568,-10.544c-8.177,0 -17.832,4.783 -28.966,14.347c-14.961,12.791 -22.442,27.598 -22.442,44.422c0,6.108 1.979,10.112 5.937,12.013c3.957,1.902 12.417,2.852 25.377,2.852l1.697,0c0.261,-3.687 0.391,-6.222 0.391,-7.605c0,-9.795 -1.044,-18.38 -3.131,-25.755c8.698,2.766 13.047,12.906 13.047,30.422l0,2.938l20.485,-0.518c9.482,0 16.18,0.922 20.094,2.765c12.961,6.108 19.441,18.668 19.441,37.682c0,25.582 -7.22,50.126 -21.659,73.634c-17.223,28.002 -38.23,42.002 -63.021,42.002c-18.18,0 -32.01,-9.737 -41.492,-29.211c-21.572,17.976 -44.406,26.964 -68.501,26.964c-18.527,0 -35.402,-5.531 -50.625,-16.593c-29.662,-21.664 -44.493,-58.654 -44.493,-110.97c0,-33.187 6.655,-60.382 19.963,-81.585c13.309,-21.203 30.315,-31.805 51.017,-31.805c20.094,0 37.404,8.585 51.93,25.755c8.09,9.449 14.614,21.001 19.572,34.657c4.958,13.655 10.612,35.463 16.962,65.423l6.524,31.113c3.566,16.824 6.785,29.558 9.655,38.2c8.612,-6.799 17.245,-19.129 25.9,-36.99c8.655,-17.861 13.983,-34.339 15.983,-49.435l-6.002,0.173c-14.526,0 -24.769,-1.585 -30.727,-4.753c-5.958,-3.169 -8.938,-8.672 -8.938,-16.508c0,-12.675 5.263,-27.137 15.788,-43.385c8.438,-13.021 18.397,-23.248 29.879,-30.681c11.482,-7.432 26.313,-13.223 44.493,-17.371l4.437,-1.037l-0.392,2.765c-0.87,5.186 -1.566,9.795 -2.088,13.828l-2.087,16.248c-0.609,5.186 -0.913,8.527 -0.913,10.025c0,3.342 1.043,5.013 3.131,5.013c1.479,0 3.001,-0.403 4.567,-1.21c3.479,-1.844 6.002,-3.169 7.567,-3.975Zm-48.798,70.522c-2.871,16.133 -9.003,33.015 -18.398,50.645c-9.394,17.631 -19.832,31.862 -31.314,42.694c4.262,12.1 8.959,20.598 14.091,25.496c5.132,4.897 11.83,7.346 20.094,7.346c16.788,0 31.641,-9.161 44.558,-27.483c12.917,-18.322 19.376,-39.352 19.376,-63.091c0,-13.367 -2.805,-22.614 -8.416,-27.742c-5.61,-5.128 -15.679,-7.692 -30.205,-7.692l-6.524,0l-3.262,-0.173Zm-66.022,99.389c-4.175,-12.215 -7.263,-23.162 -9.264,-32.841l-10.438,-50.818c-8.264,-40.447 -18.223,-69.803 -29.879,-88.067c-11.656,-18.265 -26.183,-27.397 -43.58,-27.397c-18.18,0 -32.38,8.066 -42.601,24.199c-10.221,16.133 -15.331,38.488 -15.331,67.066c0,14.865 2.066,29.903 6.198,45.114c4.131,15.21 9.72,28.405 16.766,39.582c8.873,14.059 19.615,25.006 32.228,32.842c12.613,7.836 25.835,11.754 39.665,11.754c18.528,0 37.273,-7.145 56.236,-21.434Z" style="fill:#fff;fill-rule:nonzero;stroke:#fff;stroke-width:3.42px;"/><path d="M1084.98,146.353c-4.61,-0.576 -8.438,-0.864 -11.482,-0.864c-22.877,0 -40.405,11.639 -52.583,34.916c-4.784,9.218 -8.829,19.791 -12.134,31.718c-3.305,11.926 -4.958,21.923 -4.958,29.989c0,5.647 1.239,10.285 3.718,13.915c2.48,3.629 5.633,5.444 9.46,5.444c9.047,0 19.05,-9.622 30.01,-28.866c10.96,-19.244 16.44,-36.874 16.44,-52.892c0,-3.572 -0.717,-6.597 -2.153,-9.074c-1.435,-2.478 -3.153,-3.717 -5.154,-3.717c-6.958,0 -13.613,9.219 -19.963,27.656c-0.435,-2.304 -0.652,-4.321 -0.652,-6.049c0,-7.145 3.349,-14.635 10.047,-22.471c6.698,-7.836 13.047,-11.754 19.049,-11.754c4.002,0 7.394,2.161 10.178,6.482c2.783,4.322 4.175,9.593 4.175,15.816c0,20.857 -10.047,42.982 -30.14,66.374c-17.223,20.281 -31.532,30.422 -42.927,30.422c-4.959,0 -9.069,-2.362 -12.331,-7.087c-3.262,-4.724 -4.893,-10.659 -4.893,-17.803c0,-15.787 4.154,-32.295 12.461,-49.522c8.307,-17.227 19.246,-32.064 32.815,-44.509c7.481,-6.799 15.636,-12.387 24.465,-16.766c8.829,-4.379 16.331,-6.568 22.507,-6.568c3.827,0 5.741,2.247 5.741,6.741c0,1.728 -0.565,4.551 -1.696,8.469Z" style="fill:#fff;fill-rule:nonzero;stroke:#fff;stroke-width:3.42px;"/><path d="M1156.22,130.624l-1.436,3.284l-6.393,14.174c-2.262,5.07 -4.654,10.14 -7.176,15.211l-1.435,2.765l-3.262,-2.938c0.435,-1.268 0.739,-2.19 0.913,-2.766c1.827,-4.955 2.74,-8.469 2.74,-10.544c0,-4.379 -2.914,-6.568 -8.742,-6.568c-5.306,0 -9.96,2.622 -13.961,7.865c-4.001,5.243 -6.002,11.321 -6.002,18.235c0,3.688 0.87,8.067 2.609,13.137l6.263,17.803c2.088,5.993 3.132,12.561 3.132,19.705c0,13.944 -5.785,27.138 -17.354,39.583c-10.003,10.717 -18.875,16.075 -26.617,16.075c-4.436,0 -8.09,-1.469 -10.96,-4.408c-2.871,-2.938 -4.306,-6.712 -4.306,-11.321c0,-5.416 1.044,-10.659 3.131,-15.73c5.394,12.215 12.091,18.322 20.094,18.322c6.35,0 11.96,-2.88 16.832,-8.642c4.871,-5.762 7.306,-12.445 7.306,-20.051c0,-4.033 -0.869,-8.642 -2.609,-13.828l-7.698,-22.297c-1.479,-4.379 -2.218,-9.219 -2.218,-14.52c0,-9.564 4.001,-20.281 12.003,-32.15c5.394,-7.836 10.765,-13.338 16.114,-16.507c5.35,-3.169 12.07,-4.753 20.159,-4.753c3.132,0 6.089,0.288 8.873,0.864Z" style="fill:#fff;fill-rule:nonzero;stroke:#fff;stroke-width:3.42px;"/><path d="M1225.51,247.471l2.349,4.494c-9.134,9.103 -21.616,16.248 -37.447,21.433c0.435,-11.639 5.61,-31.689 15.527,-60.152c-11.221,17.516 -22.769,32.035 -34.642,43.558c-11.874,11.524 -21.29,17.285 -28.249,17.285c-6.088,0 -9.133,-5.127 -9.133,-15.383c0,-17.4 5.872,-36.212 17.615,-56.436c11.743,-20.223 26.486,-36.846 44.231,-49.867c20.007,-14.865 39.927,-22.298 59.759,-22.298c2.784,0 4.175,1.383 4.175,4.149c0,2.304 -1.304,6.683 -3.914,13.136c-5.915,-1.382 -11.656,-2.074 -17.223,-2.074c-26.53,0 -49.364,13.655 -68.501,40.966c-14.091,20.05 -21.137,39.928 -21.137,59.633c0,9.219 2.566,13.828 7.698,13.828c4.349,0 10.612,-4.984 18.789,-14.952c8.177,-9.967 15.483,-21.519 21.92,-34.656c8.873,-18.207 14.918,-37.105 18.137,-56.695c3.74,2.996 5.61,8.527 5.61,16.594c0,11.177 -4.262,24.026 -12.787,38.545c4.176,-0.461 9.351,-2.074 15.527,-4.84l-1.044,2.939c-8.263,24.545 -12.395,38.891 -12.395,43.04c0,3.341 1.174,4.897 3.523,4.667c2.174,-0.231 6.045,-2.536 11.612,-6.914Z" style="fill:#fff;fill-rule:nonzero;stroke:#fff;stroke-width:3.42px;"/></svg>